<svg width="895" height="259" viewBox="0 0 895 259" fill="none" xmlns="http://www.w3.org/2000/svg">
<path d="M162.772 225.179C150.045 230.817 136.928 234.514 123.21 236.152C100.873 238.819 79.5115 235.072 58.8173 226.69C46.026 221.509 34.1652 214.706 23.4263 206.04C15.7263 199.827 8.74183 192.928 4.12365 183.991C-0.0977678 175.822 -0.914777 167.237 0.930165 158.31C3.33852 146.657 9.09865 136.577 15.6664 126.876C16.7806 125.23 18.5211 123.771 18.967 121.976C19.4232 120.14 17.735 118.328 17.0819 116.468C10.4886 97.6899 19.0459 76.3357 36.8409 67.2598C52.3916 59.3285 70.0333 61.889 82.5842 73.967C85.5478 76.819 88.0646 80.0579 89.8977 83.766C90.4082 84.7984 90.9688 85.1169 92.1636 84.898C103.57 82.8081 115.003 82.8198 126.43 84.7277C127.789 84.9546 128.527 84.681 129.305 83.4396C139.433 67.2885 159.857 60.913 177.135 68.9653C190.275 75.0893 197.714 85.7846 199.634 100.179C200.55 107.046 199.314 113.656 196.693 120.014C196.237 121.12 196.589 121.761 197.228 122.583C204.387 131.8 210.476 141.627 214.036 152.833C217.013 162.205 217.422 171.587 213.606 180.855C210.929 187.354 206.814 192.912 202.043 198.019C190.955 209.888 177.576 218.451 162.772 225.179ZM31.3238 87.4771C25.0311 97.844 24.7923 108.278 31.0679 118.73C33.4235 122.653 36.7353 125.659 40.5819 128.11C42.5111 129.339 43.0846 131.029 42.1073 132.736C41.233 134.262 40.2637 135.745 39.2212 137.162C38.2155 138.529 36.6447 138.877 35.1088 138.13C34.1942 137.685 33.3506 137.087 32.5001 136.52C30.5252 135.204 28.6882 133.704 27.057 132.091C26.7457 132.266 26.6165 132.296 26.557 132.378C20.1896 141.074 14.9802 150.341 12.6439 160.985C12.3397 162.371 11.8592 163.83 12.3758 165.28C13.0392 165.458 13.5836 165.27 14.1273 165.12C29.5902 160.861 45.2238 157.354 61.0357 154.673C69.6595 153.211 78.3188 151.994 87.0411 151.205C94.5789 150.522 102.129 150.06 109.684 150.101C115.644 150.134 121.609 150.392 127.57 150.853C138.008 151.66 148.38 152.923 158.688 154.683C172.65 157.066 186.455 160.18 200.105 163.972C201.336 164.314 202.54 164.864 204.184 164.822C202.786 152.014 196.306 141.752 188.989 131.699C188.433 132.18 188.069 132.448 187.761 132.769C185.981 134.635 183.882 136.105 181.775 137.557C179.528 139.105 177.768 138.753 176.263 136.532C175.657 135.638 175.067 134.732 174.471 133.831C172.652 131.082 172.896 129.715 175.538 127.841C187.518 119.348 191.454 104.686 185.167 91.9747C179.218 79.9484 164.794 74.2428 152.271 78.9951C143.556 82.3021 138.364 88.9191 135.164 97.3639C133.607 101.471 132.639 105.729 131.946 110.058C131.452 113.15 129.768 114.275 126.627 113.657C125.568 113.449 124.51 113.233 123.461 112.981C120.887 112.362 119.912 110.825 120.434 108.204C120.766 106.535 121.112 104.868 121.495 103.211C122.037 100.86 122.618 98.5193 123.197 96.1135C122.714 96.0027 122.446 95.9198 122.172 95.8816C113.724 94.7036 105.279 94.9059 96.8286 95.8947C95.1507 96.091 94.9426 96.9813 95.3067 98.3774C96.1964 101.788 96.6872 105.274 97.1707 108.758C97.445 110.735 96.3842 112.369 94.4629 112.926C93.4303 113.225 92.3591 113.399 91.2988 113.594C87.2873 114.332 85.925 113.203 85.4087 109.209C84.5542 102.598 83.3623 96.0191 80.0637 90.12C74.1128 79.4776 65.2624 73.6415 52.722 74.6775C43.6631 75.4259 36.6291 79.841 31.3238 87.4771ZM84.045 163.412C75.0481 164.291 66.1292 165.734 57.2434 167.34C45.6113 169.442 34.0823 172.045 22.6492 175.056C20.034 175.745 17.43 176.476 14.8566 177.178C14.8551 178.319 15.4221 178.996 15.8555 179.707C21.1711 188.432 28.6629 195.012 36.8968 200.821C49.4681 209.689 63.2182 216.097 78.0231 220.273C93.3876 224.607 108.961 225.863 124.784 223.512C139.381 221.344 153.199 216.779 166.177 209.781C178.146 203.326 189.001 195.453 197.207 184.383C198.928 182.061 200.496 179.644 201.79 176.713C163.203 166.164 124.46 158.897 84.045 163.412Z" fill="black"/>
<path d="M252.545 23.3688C253.756 24.1106 254.976 24.6297 255.558 25.9435C256.213 27.4224 256.178 28.8049 255.194 30.1184C246.544 41.6639 237.897 53.212 229.234 64.7483C227.886 66.5434 226.028 66.8955 224.139 65.6605C221.287 63.7953 218.468 61.8754 215.68 59.9152C213.993 58.7289 213.658 56.8611 214.729 54.9277C218.831 47.5264 222.965 40.1437 227.067 32.7426C229.737 27.9251 232.354 23.078 235.029 18.2634C236.604 15.429 238.772 14.8781 241.566 16.5833C245.203 18.8034 248.815 21.063 252.545 23.3688Z" fill="#FF3253"/>
<path d="M201.317 38.7594C200.828 40.5353 200.377 42.1783 199.918 43.819C199.24 46.2369 197.76 47.1907 195.306 46.6741C192.415 46.0657 189.535 45.3986 186.662 44.7093C184.501 44.1908 183.517 42.7917 183.814 40.5695C184.522 35.2821 185.334 30.0085 186.021 24.7185C186.911 17.8561 187.776 10.9893 188.539 4.112C188.879 1.05209 190.549 -0.428992 193.564 0.108347C197.984 0.895807 202.398 1.71159 206.806 2.55876C209.472 3.07117 210.56 4.95721 209.899 7.57628C207.268 17.9866 204.267 28.2944 201.317 38.7594Z" fill="#FF3253"/>
<path d="M203.2 78.8279C201.002 76.9777 200.784 75.3782 202.358 73.1421C203.958 70.868 205.571 68.6026 207.181 66.3355C208.783 64.0812 210.61 63.6922 212.868 65.2351C215.445 66.996 217.989 68.808 220.507 70.6526C222.034 71.7714 222.456 73.7665 221.413 75.3616C219.613 78.1153 217.742 80.8273 215.796 83.4805C214.541 85.192 212.342 85.3977 210.479 84.086C208.065 82.3871 205.692 80.6311 203.2 78.8279Z" fill="#FF3253"/>
<path d="M180.763 54.1656C182.1 49.0269 182.826 48.6118 187.817 49.9463C189.845 50.4884 191.893 50.9556 193.916 51.5174C196.369 52.1991 197.218 53.6412 196.668 56.0944C196.172 58.3062 195.675 60.518 195.14 62.7206C194.447 65.571 192.783 66.5552 190.002 65.7996C187.431 65.101 184.857 64.4112 182.291 63.6903C179.805 62.9917 178.943 61.4573 179.573 58.9145C179.954 57.376 180.346 55.8401 180.763 54.1656Z" fill="#FF3253"/>
<path d="M68.7763 98.4743C70.1689 97.1729 70.6333 95.5435 70.9868 93.8328C74.2404 96.4508 74.9392 105.073 70.3644 111.108C64.7692 118.49 54.1854 119.674 47.054 113.661C40.0228 107.733 39.6075 97.0197 46.1256 90.2891C51.7515 84.4796 61.0478 84.3797 64.5199 87.656C64.2435 88.1374 63.7199 87.996 63.3114 88.1126C60.5793 88.8921 58.8789 90.6152 58.5053 93.4652C58.1845 95.9127 59.2503 97.8204 61.2382 99.1247C63.5184 100.621 65.8714 100.404 68.1399 98.9678C68.3314 98.8466 68.503 98.694 68.7763 98.4743Z" fill="black"/>
<path d="M166.928 97.9965C171.223 102.029 175.575 100.468 178.238 94.0659C181.98 97.6094 181.059 107.048 176.487 112.032C170.319 118.753 160.41 119.39 153.853 113.485C147.198 107.492 146.645 97.7089 152.441 90.9851C157.981 84.5577 167.638 84.2988 171.911 87.8431C168.742 88.3588 166.485 89.823 165.702 92.926C165.235 94.775 165.792 96.3978 166.928 97.9965Z" fill="black"/>
<path d="M111.821 173.836C115.856 173.834 119.72 173.799 123.583 173.841C125.792 173.866 127.42 175.212 128.052 177.367C128.553 179.076 127.827 181.027 126.31 182.179C125.286 182.956 124.071 183.041 122.899 183.045C112.898 183.082 102.898 183.114 92.8978 183.036C89.8467 183.012 87.7913 180.906 87.915 178.348C88.0507 175.54 90.0606 173.822 93.2399 173.821C99.3767 173.82 105.514 173.831 111.821 173.836Z" fill="black"/>
<path d="M684.11 203.673C679.488 205.984 674.632 207.168 669.64 207.757C661.1 208.764 652.573 208.589 644.206 206.492C625.386 201.775 614.084 189.655 610.026 170.837C607.833 160.669 608.048 150.43 611.111 140.431C615.747 125.291 625.887 115.38 640.739 110.227C649.635 107.14 658.838 106.551 668.16 107.316C676.089 107.966 683.556 110.078 690.264 114.493C696.987 118.918 701.138 125.164 703.158 132.884C703.494 134.169 704.109 135.134 705.548 135.714C705.548 135.204 705.548 134.8 705.548 134.397C705.548 127.829 705.545 121.261 705.549 114.693C705.551 111.321 707.636 109.207 710.977 109.204C717.674 109.197 724.37 109.196 731.067 109.204C734.258 109.208 736.411 111.334 736.411 114.511C736.411 144.861 736.459 175.211 736.363 205.56C736.335 214.501 734.87 223.239 730.874 231.358C725.376 242.526 716.455 249.861 704.905 254.172C697.585 256.904 689.994 258.434 682.216 258.777C676.525 259.028 670.792 259.13 665.115 258.747C653.169 257.94 641.772 255.058 631.792 248.073C622.302 241.43 616.958 232.268 615.828 220.707C615.544 217.809 617.488 215.583 620.424 215.564C628.194 215.515 635.964 215.528 643.733 215.562C646.05 215.572 648.105 217.336 648.82 219.768C648.976 220.301 649.072 220.851 649.185 221.396C650.125 225.91 653.029 228.514 657.337 229.707C662.334 231.09 667.458 231.469 672.614 231.54C678.365 231.619 684.085 231.495 689.772 230.344C697.21 228.839 701.217 224.216 702.394 216.971C702.916 213.766 703.263 210.501 703.311 207.258C703.436 198.717 703.353 190.173 703.351 181.63C703.351 181.465 703.329 181.3 703.308 181.006C701.849 181.405 701.253 182.443 700.871 183.707C699.608 187.893 697.62 191.705 694.835 195.075C691.88 198.651 688.39 201.586 684.11 203.673ZM657.214 137.226C656.798 137.327 656.378 137.413 655.967 137.531C651.181 138.908 646.998 141.143 644.45 145.681C643.128 148.034 642.511 150.614 642.213 153.259C641.774 157.158 641.869 161.053 642.723 164.902C644.307 172.047 649.153 175.966 655.841 177.934C663.276 180.121 670.906 180.087 678.545 179.608C683.266 179.312 687.893 178.497 692.295 176.662C697.997 174.286 701.781 170.214 702.818 164.055C703.32 161.078 703.406 157.988 703.312 154.961C703.061 146.928 699.082 141.424 691.557 138.548C687.075 136.836 682.392 136.069 677.625 135.82C670.84 135.465 664.079 135.568 657.214 137.226Z" fill="black"/>
<path d="M860.343 190.323C856.473 198.81 852.576 207.18 848.821 215.613C847.599 218.358 845.741 219.566 842.75 219.547C832.018 219.477 821.285 219.477 810.553 219.547C807.565 219.566 805.706 218.371 804.466 215.626C795.444 195.646 786.344 175.7 777.265 155.746C771.335 142.714 765.394 129.687 759.47 116.652C757.725 112.812 760.037 109.209 764.243 109.204C772.528 109.192 780.814 109.199 789.099 109.201C791.724 109.202 793.33 110.279 794.363 112.724C798.904 123.469 803.444 134.215 807.982 144.961C813.701 158.503 819.419 172.045 825.133 185.588C825.486 186.425 825.78 187.296 826.924 187.312C828.059 187.327 828.421 186.508 828.784 185.654C836.121 168.395 843.461 151.139 850.801 133.882C853.811 126.805 856.826 119.731 859.825 112.65C860.826 110.288 862.573 109.18 865.142 109.19C873.127 109.219 881.112 109.198 889.097 109.201C893.48 109.202 895.8 112.782 893.978 116.776C888.958 127.779 883.919 138.773 878.887 149.771C872.716 163.257 866.543 176.743 860.343 190.323Z" fill="#FF3253"/>
<path d="M388.689 136.498C380.581 136.498 372.602 136.498 364.539 136.498C364.504 136.783 364.45 137.022 364.45 137.261C364.451 150.611 364.442 163.961 364.485 177.31C364.489 178.713 364.745 180.124 364.971 181.517C365.667 185.806 368.261 188.301 372.478 188.989C375.09 189.416 377.749 189.693 380.394 189.76C385.198 189.88 390.008 189.79 394.816 189.795C397.979 189.799 400.041 191.853 400.044 195.013C400.051 201.409 400.05 207.805 400.045 214.201C400.042 217.359 398.168 219.491 395.014 219.478C385.103 219.436 375.182 219.507 365.287 219.048C358.558 218.736 352.194 216.613 346.4 213.012C338.59 208.157 334.255 200.948 332.618 192.107C331.866 188.041 331.497 183.855 331.455 179.718C331.315 165.854 331.402 151.988 331.402 138.123C331.402 137.618 331.402 137.114 331.402 136.498C327.205 136.498 323.139 136.492 319.072 136.5C316.794 136.504 315.251 135.372 314.371 133.354C314.091 132.713 314.022 131.938 314.019 131.224C313.991 125.73 314.001 120.235 314.004 114.741C314.006 111.267 316.042 109.209 319.487 109.202C323.007 109.196 326.527 109.201 330.047 109.201C330.463 109.201 330.879 109.201 331.402 109.201C331.402 108.52 331.402 107.97 331.402 107.421C331.402 102.699 331.392 97.977 331.405 93.2552C331.415 89.9149 333.459 87.8535 336.762 87.8498C344.189 87.8414 351.615 87.8422 359.041 87.8494C362.32 87.8526 364.433 89.9538 364.442 93.2355C364.456 98.5085 364.446 103.782 364.446 109.201C364.968 109.201 365.423 109.201 365.879 109.201C375.408 109.201 384.939 109.266 394.467 109.161C397.301 109.129 400.199 111.183 400.09 114.754C399.923 120.243 400.05 125.741 400.045 131.236C400.042 134.493 398.023 136.49 394.741 136.497C392.767 136.501 390.793 136.498 388.689 136.498Z" fill="black"/>
<path d="M461.735 139.189C458.287 142.522 457.176 146.755 456.712 151.214C456.49 153.339 456.469 155.491 456.467 157.632C456.45 176.304 456.406 194.977 456.505 213.649C456.522 216.996 454.505 219.63 450.545 219.557C443.508 219.428 436.465 219.424 429.428 219.558C425.422 219.634 423.386 217.045 423.394 213.583C423.471 180.789 423.48 147.994 423.389 115.199C423.378 111.12 426.08 109.057 429.487 109.151C435.835 109.327 442.192 109.2 448.545 109.203C451.975 109.204 454.057 111.287 454.058 114.725C454.062 122.535 454.059 130.345 454.059 138.307C455.711 137.863 456.237 136.663 456.69 135.289C457.705 132.21 458.539 129.029 459.941 126.129C465.08 115.497 473.744 109.49 485.309 107.63C492.204 106.521 499.115 106.611 505.791 108.808C515.638 112.047 521.936 118.908 525.196 128.675C527.048 134.221 527.798 139.924 527.787 145.749C527.778 149.955 527.794 154.162 527.782 158.369C527.772 161.804 525.775 163.797 522.344 163.8C514.918 163.807 507.492 163.809 500.066 163.799C496.808 163.795 494.834 161.779 494.748 158.514C494.65 154.788 494.765 151.027 494.283 147.347C493.391 140.532 489.994 136.98 483.223 135.629C477.648 134.517 472.028 134.568 466.601 136.492C464.903 137.094 463.396 138.233 461.735 139.189Z" fill="black"/>
<path d="M562.817 109.201C566.808 109.201 570.67 109.197 574.532 109.203C577.688 109.207 579.746 111.008 579.909 114.186C580.206 119.968 580.363 125.758 580.575 131.544C581.063 144.831 581.552 158.118 582.033 171.406C582.45 182.936 582.853 194.467 583.267 205.998C583.364 208.698 583.487 211.397 583.582 214.097C583.694 217.31 581.502 219.5 578.096 219.514C572.303 219.538 566.51 219.524 560.716 219.519C559.043 219.517 557.366 219.564 555.698 219.465C552.79 219.293 550.84 217.204 550.934 214.313C551.226 205.353 551.568 196.395 551.891 187.437C552.186 179.25 552.481 171.064 552.778 162.877C553.256 149.675 553.737 136.473 554.217 123.272C554.326 120.272 554.433 117.272 554.553 114.272C554.674 111.216 556.763 109.224 559.856 109.202C560.8 109.196 561.744 109.201 562.817 109.201Z" fill="black"/>
<path d="M579.787 84.9579C579.787 87.5743 579.795 90.0618 579.785 92.5493C579.77 95.9098 577.678 98.0272 574.348 98.0358C569.63 98.048 564.912 98.0464 560.194 98.0364C556.811 98.0293 554.738 95.9706 554.729 92.6007C554.716 87.5399 554.713 82.4789 554.73 77.4181C554.742 74.0618 556.693 72.0642 560.069 72.0334C564.873 71.9896 569.677 71.9878 574.48 72.0345C577.785 72.0667 579.766 74.1531 579.784 77.4951C579.797 79.9397 579.787 82.3845 579.787 84.9579Z" fill="black"/>
</svg>
